<svg xmlns="http://www.w3.org/2000/svg" viewBox="0 0 1200 400" width="1200" height="400" role="img" aria-label="A follow-up timeline with three messages sent on day 2, day 7 and day 21 after a trade show">
  <defs>
    <g id="envelope">
      <rect x="-22" y="-16" width="44" height="32" rx="5" fill="none" stroke-width="3.5" />
      <path d="M-22 -10 L-1.5 4 a4 4 0 0 0 3 0 L22 -10" fill="none" stroke-width="3.5" stroke-linecap="round" />
    </g>
  </defs>

  <rect width="1200" height="400" fill="#ecfdf5" />
  <circle cx="10" cy="400" r="130" fill="#d1fae5" />
  <circle cx="1180" cy="16" r="100" fill="#d1fae5" />

  <!-- Timeline -->
  <line x1="150" y1="252" x2="1050" y2="252" stroke="#a7f3d0" stroke-width="10" stroke-linecap="round" />
  <circle cx="150" cy="252" r="16" fill="#065f46" />

  <g font-family="Inter, 'Segoe UI', Arial, sans-serif" font-weight="700" font-size="21" text-anchor="middle">
    <!-- Day 2 -->
    <rect x="195" y="86" width="210" height="124" rx="16" fill="#0f172a" opacity="0.06" transform="translate(0,4)" />
    <rect x="195" y="86" width="210" height="124" rx="16" fill="#ffffff" stroke="#a7f3d0" stroke-width="3" />
    <g transform="translate(240,124)" stroke="#10b981"><use href="#envelope" /></g>
    <rect x="276" y="150" width="98" height="12" rx="6" fill="#cbd5e1" />
    <rect x="226" y="174" width="148" height="10" rx="5" fill="#e2e8f0" />
    <line x1="300" y1="210" x2="300" y2="230" stroke="#a7f3d0" stroke-width="6" />
    <circle cx="300" cy="252" r="22" fill="#10b981" />
    <circle cx="300" cy="252" r="8" fill="#ffffff" />
    <text x="300" y="312" fill="#0f172a">Day 2</text>

    <!-- Day 7 -->
    <rect x="495" y="86" width="210" height="124" rx="16" fill="#0f172a" opacity="0.06" transform="translate(0,4)" />
    <rect x="495" y="86" width="210" height="124" rx="16" fill="#ffffff" stroke="#e2e8f0" stroke-width="3" />
    <g transform="translate(540,124)" stroke="#94a3b8"><use href="#envelope" /></g>
    <rect x="576" y="150" width="98" height="12" rx="6" fill="#cbd5e1" />
    <rect x="526" y="174" width="148" height="10" rx="5" fill="#e2e8f0" />
    <line x1="600" y1="210" x2="600" y2="230" stroke="#a7f3d0" stroke-width="6" />
    <circle cx="600" cy="252" r="22" fill="#34d399" />
    <circle cx="600" cy="252" r="8" fill="#ffffff" />
    <text x="600" y="312" fill="#0f172a">Day 7</text>

    <!-- Day 21 -->
    <rect x="795" y="86" width="210" height="124" rx="16" fill="#0f172a" opacity="0.06" transform="translate(0,4)" />
    <rect x="795" y="86" width="210" height="124" rx="16" fill="#ffffff" stroke="#e2e8f0" stroke-width="3" />
    <g transform="translate(840,124)" stroke="#94a3b8"><use href="#envelope" /></g>
    <rect x="876" y="150" width="98" height="12" rx="6" fill="#cbd5e1" />
    <rect x="826" y="174" width="148" height="10" rx="5" fill="#e2e8f0" />
    <line x1="900" y1="210" x2="900" y2="230" stroke="#a7f3d0" stroke-width="6" />
    <circle cx="900" cy="252" r="22" fill="#6ee7b7" />
    <circle cx="900" cy="252" r="8" fill="#ffffff" />
    <text x="900" y="312" fill="#0f172a">Day 21</text>
  </g>
</svg>
