<svg xmlns="http://www.w3.org/2000/svg" viewBox="0 0 1200 630" width="1200" height="630" role="img" aria-label="A follow-up timeline with three messages sent on day 2, day 7 and day 21 after a trade show">
  <defs>
    <g id="envelope">
      <rect x="-28" y="-20" width="56" height="40" rx="7" fill="none" stroke-width="5" />
      <path d="M-28 -13 L-2 5 a5 5 0 0 0 4 0 L28 -13" fill="none" stroke-width="5" stroke-linecap="round" />
    </g>
  </defs>

  <rect width="1200" height="630" fill="#d1fae5" />
  <circle cx="-10" cy="660" r="210" fill="#a7f3d0" />
  <circle cx="1215" cy="-25" r="180" fill="#a7f3d0" />
  <circle cx="1092" cy="560" r="22" fill="#fbbf24" />
  <circle cx="96" cy="132" r="18" fill="#818cf8" />

  <!-- Timeline -->
  <line x1="150" y1="404" x2="1050" y2="404" stroke="#ffffff" stroke-width="16" stroke-linecap="round" />
  <circle cx="150" cy="404" r="22" fill="#065f46" />

  <g font-family="Inter, 'Segoe UI', Arial, sans-serif" font-weight="700" font-size="30" text-anchor="middle">
    <!-- Day 2 -->
    <rect x="180" y="126" width="240" height="186" rx="24" fill="#065f46" opacity="0.14" transform="translate(0,7)" />
    <rect x="180" y="126" width="240" height="186" rx="24" fill="#ffffff" />
    <g transform="translate(238,182)" stroke="#10b981"><use href="#envelope" /></g>
    <rect x="266" y="228" width="118" height="16" rx="8" fill="#cbd5e1" />
    <rect x="216" y="258" width="168" height="14" rx="7" fill="#e2e8f0" />
    <line x1="300" y1="312" x2="300" y2="374" stroke="#ffffff" stroke-width="9" />
    <circle cx="300" cy="404" r="32" fill="#10b981" />
    <circle cx="300" cy="404" r="12" fill="#ffffff" />
    <text x="300" y="490" fill="#064e3b">Day 2</text>

    <!-- Day 7 -->
    <rect x="480" y="126" width="240" height="186" rx="24" fill="#065f46" opacity="0.14" transform="translate(0,7)" />
    <rect x="480" y="126" width="240" height="186" rx="24" fill="#ffffff" />
    <g transform="translate(538,182)" stroke="#f59e0b"><use href="#envelope" /></g>
    <rect x="566" y="228" width="118" height="16" rx="8" fill="#cbd5e1" />
    <rect x="516" y="258" width="168" height="14" rx="7" fill="#e2e8f0" />
    <line x1="600" y1="312" x2="600" y2="374" stroke="#ffffff" stroke-width="9" />
    <circle cx="600" cy="404" r="32" fill="#f59e0b" />
    <circle cx="600" cy="404" r="12" fill="#ffffff" />
    <text x="600" y="490" fill="#064e3b">Day 7</text>

    <!-- Day 21 -->
    <rect x="780" y="126" width="240" height="186" rx="24" fill="#065f46" opacity="0.14" transform="translate(0,7)" />
    <rect x="780" y="126" width="240" height="186" rx="24" fill="#ffffff" />
    <g transform="translate(838,182)" stroke="#6366f1"><use href="#envelope" /></g>
    <rect x="866" y="228" width="118" height="16" rx="8" fill="#cbd5e1" />
    <rect x="816" y="258" width="168" height="14" rx="7" fill="#e2e8f0" />
    <line x1="900" y1="312" x2="900" y2="374" stroke="#ffffff" stroke-width="9" />
    <circle cx="900" cy="404" r="32" fill="#6366f1" />
    <circle cx="900" cy="404" r="12" fill="#ffffff" />
    <text x="900" y="490" fill="#064e3b">Day 21</text>
  </g>
</svg>
