<svg xmlns="http://www.w3.org/2000/svg" viewBox="0 0 1200 400" width="1200" height="400" role="img" aria-label="An exhibitor and a visitor talking across a booth counter beside a stopwatch showing ninety seconds">
  <defs>
    <g id="person">
      <circle cx="0" cy="-7" r="8" />
      <path d="M-13 13a13 13 0 0 1 26 0z" />
    </g>
  </defs>

  <rect width="1200" height="400" fill="#ecfdf5" />
  <circle cx="10" cy="400" r="130" fill="#d1fae5" />
  <circle cx="1180" cy="16" r="100" fill="#d1fae5" />

  <!-- Booth backdrop -->
  <rect x="300" y="70" width="600" height="26" rx="13" fill="#065f46" />
  <rect x="330" y="96" width="540" height="8" rx="4" fill="#a7f3d0" />

  <!-- The two people -->
  <g transform="translate(430,196) scale(4.6)"><use href="#person" fill="#0f766e" /></g>
  <g transform="translate(770,196) scale(4.6)"><use href="#person" fill="#64748b" /></g>

  <!-- Counter between them -->
  <rect x="500" y="248" width="200" height="24" rx="12" fill="#0f172a" />
  <rect x="524" y="272" width="152" height="98" rx="8" fill="#10b981" />
  <rect x="548" y="300" width="104" height="10" rx="5" fill="#ffffff" opacity="0.65" />
  <rect x="548" y="322" width="72" height="10" rx="5" fill="#ffffff" opacity="0.45" />

  <!-- Question bubble -->
  <g>
    <rect x="524" y="118" width="152" height="86" rx="24" fill="#ffffff" stroke="#e2e8f0" stroke-width="3" />
    <path d="M584 204 L600 232 L616 204 Z" fill="#ffffff" stroke="#e2e8f0" stroke-width="3" />
    <path d="M584 204 L616 204" stroke="#ffffff" stroke-width="4" />
    <text x="600" y="180" text-anchor="middle" font-family="Inter, 'Segoe UI', Arial, sans-serif" font-weight="800" font-size="54" fill="#10b981">?</text>
  </g>

  <!-- Stopwatch -->
  <g>
    <rect x="1006" y="138" width="28" height="18" rx="5" fill="#0f172a" />
    <rect x="1058" y="180" width="32" height="14" rx="7" fill="#0f172a" transform="rotate(40 1074 187)" />
    <circle cx="1020" cy="242" r="72" fill="#ffffff" stroke="#0f172a" stroke-width="12" />
    <text x="1020" y="256" text-anchor="middle" font-family="Inter, 'Segoe UI', Arial, sans-serif" font-weight="800" font-size="38" fill="#0f172a">90s</text>
  </g>
</svg>
