<svg xmlns="http://www.w3.org/2000/svg" viewBox="0 0 1200 630" width="1200" height="630" role="img" aria-label="An exhibitor and a visitor talking across a booth counter beside a stopwatch showing ninety seconds">
  <defs>
    <g id="person">
      <circle cx="0" cy="-7" r="8" />
      <path d="M-13 13a13 13 0 0 1 26 0z" />
    </g>
  </defs>

  <rect width="1200" height="630" fill="#d1fae5" />
  <circle cx="-10" cy="660" r="210" fill="#a7f3d0" />
  <circle cx="1215" cy="-25" r="180" fill="#a7f3d0" />
  <circle cx="118" cy="152" r="24" fill="#fbbf24" />
  <circle cx="146" cy="470" r="16" fill="#818cf8" />

  <!-- Booth backdrop -->
  <rect x="272" y="96" width="640" height="36" rx="18" fill="#065f46" />
  <rect x="306" y="140" width="572" height="12" rx="6" fill="#6ee7b7" />

  <!-- The two people -->
  <g transform="translate(410,320) scale(6.6)"><use href="#person" fill="#0d9488" /></g>
  <g transform="translate(790,320) scale(6.6)"><use href="#person" fill="#6366f1" /></g>

  <!-- Counter between them -->
  <rect x="494" y="404" width="212" height="30" rx="15" fill="#0f172a" />
  <rect x="520" y="434" width="160" height="132" rx="12" fill="#10b981" />
  <rect x="548" y="472" width="104" height="14" rx="7" fill="#ffffff" opacity="0.75" />
  <rect x="548" y="500" width="72" height="14" rx="7" fill="#ffffff" opacity="0.5" />

  <!-- Question bubble -->
  <g>
    <rect x="514" y="186" width="172" height="106" rx="28" fill="#ffffff" />
    <path d="M578 292 L600 330 L622 292 Z" fill="#ffffff" />
    <text x="600" y="262" text-anchor="middle" font-family="Inter, 'Segoe UI', Arial, sans-serif" font-weight="800" font-size="70" fill="#f59e0b">?</text>
  </g>

  <!-- Stopwatch -->
  <g>
    <rect x="1000" y="216" width="34" height="22" rx="7" fill="#0f172a" />
    <rect x="1058" y="256" width="38" height="18" rx="9" fill="#0f172a" transform="rotate(40 1077 265)" />
    <circle cx="1017" cy="342" r="88" fill="#ffffff" stroke="#0f172a" stroke-width="15" />
    <path d="M1017 342 L1017 288" stroke="#f59e0b" stroke-width="11" stroke-linecap="round" />
    <text x="1017" y="392" text-anchor="middle" font-family="Inter, 'Segoe UI', Arial, sans-serif" font-weight="800" font-size="46" fill="#0f172a">90s</text>
  </g>
</svg>
