<svg xmlns="http://www.w3.org/2000/svg" viewBox="0 0 1200 630" width="1200" height="630" role="img" aria-label="Exhibition visitors passing through a funnel and being sorted into hot, warm and cold lead cards">
  <defs>
    <g id="person">
      <circle cx="0" cy="-7" r="8" />
      <path d="M-13 13a13 13 0 0 1 26 0z" />
    </g>
  </defs>

  <rect width="1200" height="630" fill="#d1fae5" />
  <circle cx="-10" cy="660" r="210" fill="#a7f3d0" />
  <circle cx="1215" cy="-25" r="180" fill="#a7f3d0" />
  <circle cx="556" cy="566" r="26" fill="#fbbf24" />
  <circle cx="1096" cy="576" r="20" fill="#818cf8" />

  <!-- Crowd of visitors -->
  <g>
    <use href="#person" x="150" y="112" fill="#475569" />
    <use href="#person" x="206" y="96" fill="#6366f1" />
    <use href="#person" x="262" y="114" fill="#475569" />
    <use href="#person" x="318" y="98" fill="#f59e0b" />
    <use href="#person" x="374" y="112" fill="#475569" />
    <use href="#person" x="430" y="96" fill="#6366f1" />
    <use href="#person" x="178" y="164" fill="#6366f1" />
    <use href="#person" x="234" y="158" fill="#475569" />
    <use href="#person" x="290" y="168" fill="#f59e0b" />
    <use href="#person" x="346" y="156" fill="#475569" />
    <use href="#person" x="402" y="166" fill="#6366f1" />
    <use href="#person" x="458" y="158" fill="#475569" />
  </g>

  <!-- Funnel -->
  <path d="M118 236 L482 236 L336 396 L336 470 L264 470 L264 396 Z" fill="#059669" />
  <path d="M118 236 L482 236 L456 264 L144 264 Z" fill="#34d399" />

  <!-- Qualified leads dropping out -->
  <circle cx="264" cy="516" r="14" fill="#047857" />
  <circle cx="300" cy="532" r="14" fill="#047857" />
  <circle cx="336" cy="516" r="14" fill="#047857" />

  <!-- Magnifying glass over the crowd -->
  <g>
    <line x1="486" y1="164" x2="540" y2="218" stroke="#0f172a" stroke-width="22" stroke-linecap="round" />
    <circle cx="440" cy="118" r="58" fill="#ffffff" fill-opacity="0.45" />
    <circle cx="440" cy="118" r="58" fill="none" stroke="#0f172a" stroke-width="15" />
  </g>

  <!-- Sorted lead cards -->
  <g font-family="Inter, 'Segoe UI', Arial, sans-serif" font-weight="700" font-size="25">
    <!-- Hot -->
    <rect x="640" y="121" width="482" height="136" rx="22" fill="#065f46" opacity="0.14" />
    <rect x="640" y="115" width="482" height="136" rx="22" fill="#ffffff" />
    <circle cx="708" cy="183" r="34" fill="#a7f3d0" />
    <g transform="translate(708,183) scale(1.8)" fill="#047857"><use href="#person" /></g>
    <rect x="760" y="160" width="196" height="16" rx="8" fill="#cbd5e1" />
    <rect x="760" y="190" width="132" height="14" rx="7" fill="#e2e8f0" />
    <rect x="962" y="160" width="130" height="46" rx="23" fill="#10b981" />
    <text x="1027" y="191" fill="#ffffff" text-anchor="middle">Hot</text>

    <!-- Warm -->
    <rect x="620" y="271" width="482" height="136" rx="22" fill="#065f46" opacity="0.14" />
    <rect x="620" y="265" width="482" height="136" rx="22" fill="#ffffff" />
    <circle cx="688" cy="333" r="34" fill="#fde68a" />
    <g transform="translate(688,333) scale(1.8)" fill="#b45309"><use href="#person" /></g>
    <rect x="740" y="310" width="172" height="16" rx="8" fill="#cbd5e1" />
    <rect x="740" y="340" width="116" height="14" rx="7" fill="#e2e8f0" />
    <rect x="942" y="310" width="130" height="46" rx="23" fill="#f59e0b" />
    <text x="1007" y="341" fill="#ffffff" text-anchor="middle">Warm</text>

    <!-- Cold -->
    <rect x="600" y="421" width="482" height="136" rx="22" fill="#065f46" opacity="0.14" />
    <rect x="600" y="415" width="482" height="136" rx="22" fill="#ffffff" />
    <circle cx="668" cy="483" r="34" fill="#c7d2fe" />
    <g transform="translate(668,483) scale(1.8)" fill="#4338ca"><use href="#person" /></g>
    <rect x="720" y="460" width="184" height="16" rx="8" fill="#cbd5e1" />
    <rect x="720" y="490" width="104" height="14" rx="7" fill="#e2e8f0" />
    <rect x="922" y="460" width="130" height="46" rx="23" fill="#6366f1" />
    <text x="987" y="491" fill="#ffffff" text-anchor="middle">Cold</text>
  </g>
</svg>
