<svg xmlns="http://www.w3.org/2000/svg" viewBox="0 0 1200 400" width="1200" height="400" role="img" aria-label="Exhibition visitors passing through a funnel and being sorted into hot, warm and cold lead cards">
  <defs>
    <g id="person">
      <circle cx="0" cy="-7" r="8" />
      <path d="M-13 13a13 13 0 0 1 26 0z" />
    </g>
  </defs>

  <rect width="1200" height="400" fill="#ecfdf5" />
  <circle cx="10" cy="400" r="130" fill="#d1fae5" />
  <circle cx="1180" cy="16" r="100" fill="#d1fae5" />

  <!-- Crowd of visitors -->
  <g>
    <use href="#person" x="150" y="70" fill="#94a3b8" />
    <use href="#person" x="205" y="56" fill="#64748b" />
    <use href="#person" x="258" y="74" fill="#10b981" />
    <use href="#person" x="312" y="58" fill="#94a3b8" />
    <use href="#person" x="366" y="72" fill="#64748b" />
    <use href="#person" x="420" y="56" fill="#94a3b8" />
    <use href="#person" x="178" y="112" fill="#64748b" />
    <use href="#person" x="232" y="108" fill="#94a3b8" />
    <use href="#person" x="286" y="116" fill="#64748b" />
    <use href="#person" x="340" y="106" fill="#10b981" />
    <use href="#person" x="394" y="114" fill="#94a3b8" />
    <use href="#person" x="446" y="108" fill="#64748b" />
  </g>

  <!-- Funnel -->
  <path d="M130 150 L470 150 L335 272 L335 322 L265 322 L265 272 Z" fill="#10b981" />
  <path d="M130 150 L470 150 L446 172 L154 172 Z" fill="#34d399" />

  <!-- Qualified leads dropping out -->
  <circle cx="268" cy="352" r="10" fill="#065f46" />
  <circle cx="300" cy="364" r="10" fill="#065f46" />
  <circle cx="332" cy="352" r="10" fill="#065f46" />

  <!-- Magnifying glass over the crowd -->
  <g>
    <line x1="466" y1="120" x2="512" y2="166" stroke="#0f172a" stroke-width="18" stroke-linecap="round" />
    <circle cx="424" cy="78" r="50" fill="#ffffff" fill-opacity="0.4" />
    <circle cx="424" cy="78" r="50" fill="none" stroke="#0f172a" stroke-width="12" />
  </g>

  <!-- Sorted lead cards -->
  <g font-family="Inter, 'Segoe UI', Arial, sans-serif" font-weight="700" font-size="19">
    <!-- Hot -->
    <rect x="640" y="62" width="470" height="92" rx="16" fill="#0f172a" opacity="0.06" />
    <rect x="640" y="58" width="470" height="92" rx="16" fill="#ffffff" stroke="#e2e8f0" stroke-width="2" />
    <circle cx="692" cy="104" r="25" fill="#a7f3d0" />
    <use href="#person" x="692" y="104" fill="#047857" />
    <rect x="732" y="88" width="172" height="13" rx="6.5" fill="#cbd5e1" />
    <rect x="732" y="110" width="118" height="11" rx="5.5" fill="#e2e8f0" />
    <rect x="960" y="88" width="112" height="33" rx="16.5" fill="#10b981" />
    <text x="1016" y="111" fill="#ffffff" text-anchor="middle">Hot</text>

    <!-- Warm -->
    <rect x="620" y="170" width="470" height="92" rx="16" fill="#0f172a" opacity="0.06" />
    <rect x="620" y="166" width="470" height="92" rx="16" fill="#ffffff" stroke="#e2e8f0" stroke-width="2" />
    <circle cx="672" cy="212" r="25" fill="#fde68a" />
    <use href="#person" x="672" y="212" fill="#b45309" />
    <rect x="712" y="196" width="150" height="13" rx="6.5" fill="#cbd5e1" />
    <rect x="712" y="218" width="104" height="11" rx="5.5" fill="#e2e8f0" />
    <rect x="940" y="196" width="112" height="33" rx="16.5" fill="#f59e0b" />
    <text x="996" y="219" fill="#ffffff" text-anchor="middle">Warm</text>

    <!-- Cold -->
    <rect x="600" y="278" width="470" height="92" rx="16" fill="#0f172a" opacity="0.06" />
    <rect x="600" y="274" width="470" height="92" rx="16" fill="#ffffff" stroke="#e2e8f0" stroke-width="2" />
    <circle cx="652" cy="320" r="25" fill="#e2e8f0" />
    <use href="#person" x="652" y="320" fill="#64748b" />
    <rect x="692" y="304" width="160" height="13" rx="6.5" fill="#cbd5e1" />
    <rect x="692" y="326" width="96" height="11" rx="5.5" fill="#e2e8f0" />
    <rect x="920" y="304" width="112" height="33" rx="16.5" fill="#94a3b8" />
    <text x="976" y="327" fill="#ffffff" text-anchor="middle">Cold</text>
  </g>
</svg>
